<?xml version="1.0" encoding="UTF-8"?>
<svg version="1.1" xmlns="http://www.w3.org/2000/svg" width="225" height="224">
<path d="M0 0 C16.83 0 33.66 0 51 0 C51 6.8164794 51 6.8164794 49.1875 10.3125 C48.85105469 10.98925781 48.51460938 11.66601562 48.16796875 12.36328125 C47 14 47 14 44 15 C43.31513275 16.32407669 42.65129797 17.65909241 42 19 C40.68 20.32 39.36 21.64 38 23 C42.29 27.29 46.58 31.58 51 36 C53.31 34.02 55.62 32.04 58 30 C61.76411823 31.88205912 63.16656437 33.04193527 65.8359375 36.09765625 C75.1094255 47.18819201 75.1094255 47.18819201 88.125 51.625 C91.4132132 51.4856064 91.4132132 51.4856064 94 51 C94 52.32 94 53.64 94 55 C88.55515114 56.20172413 83.35795865 56.88532765 78 55 C71.04489443 50.13277138 65.45601393 43.44663099 60 37 C58.02 37.99 58.02 37.99 56 39 C57.38468082 42.11853829 58.99070448 44.2375727 61.40625 46.63671875 C62.06753906 47.29607422 62.72882813 47.95542969 63.41015625 48.63476562 C64.09980469 49.31216797 64.78945312 49.98957031 65.5 50.6875 C66.53447266 51.72100586 66.53447266 51.72100586 67.58984375 52.77539062 C72.50393201 57.82303852 72.50393201 57.82303852 79.1328125 59.31640625 C79.93847656 59.35830078 80.74414062 59.40019531 81.57421875 59.44335938 C82.83685547 59.50233398 82.83685547 59.50233398 84.125 59.5625 C85.39923828 59.62727539 85.39923828 59.62727539 86.69921875 59.69335938 C88.79928223 59.79954236 90.89961948 59.90028497 93 60 C93.1546875 59.071875 93.1546875 59.071875 93.3125 58.125 C94 56 94 56 97 54 C103.96517413 53.33665008 103.96517413 53.33665008 107.4375 55.5625 C109.53567796 58.83565762 110 61.11417724 110 65 C108.5 67.875 108.5 67.875 106 70 C102.37061908 70.9721556 100.09964462 71.42294024 96.5625 70.0625 C96.046875 69.711875 95.53125 69.36125 95 69 C95 70.32 95 71.64 95 73 C49.13 73 3.26 73 -44 73 C-44.33 72.01 -44.66 71.02 -45 70 C-46.216875 70.2475 -47.43375 70.495 -48.6875 70.75 C-51.97934568 71.1468892 -52.85377765 71.07466673 -55.9375 69.5 C-58.65236871 66.20925005 -59.07336672 64.25526985 -59 60 C-57.625 56.5625 -57.625 56.5625 -55 54 C-51.86271828 53.24728222 -49.14521202 53.30747625 -46 54 C-43.4375 55.875 -43.4375 55.875 -42 58 C-42 58.66 -42 59.32 -42 60 C-30.00276273 60.93786536 -30.00276273 60.93786536 -19.359375 56.484375 C-16.66042171 53.86112144 -14.37649009 50.91420098 -12 48 C-11.34 48 -10.68 48 -10 48 C-9.34 46.68 -8.68 45.36 -8 44 C-7.34 44 -6.68 44 -6 44 C-5.67 42.35 -5.34 40.7 -5 39 C-6.32 38.34 -7.64 37.68 -9 37 C-11.64988265 39.62093922 -14.29420143 42.24742198 -16.9375 44.875 C-18.06961914 45.99455078 -18.06961914 45.99455078 -19.22460938 47.13671875 C-20.30258789 48.20986328 -20.30258789 48.20986328 -21.40234375 49.3046875 C-22.06741943 49.96452637 -22.73249512 50.62436523 -23.41772461 51.30419922 C-25.0813711 52.92673932 -25.0813711 52.92673932 -26 55 C-31.61 55 -37.22 55 -43 55 C-43 53.68 -43 52.36 -43 51 C-42.11554199 51.04455322 -41.23108398 51.08910645 -40.31982422 51.13500977 C-33.12856498 51.12295199 -28.6353039 50.51464267 -23.2578125 45.52734375 C-21.51224405 43.69646556 -19.80127441 41.83202586 -18.125 39.9375 C-17.23425781 38.98810547 -16.34351563 38.03871094 -15.42578125 37.06054688 C-13.2511148 34.73388761 -11.11271987 32.38280282 -9 30 C-5.59787701 31.61382757 -2.89675481 33.58603766 0 36 C3.07541938 34.78907984 3.07541938 34.78907984 4.90625 32.15625 C6.15777616 29.68895558 7.6376674 28.16372769 9.625 26.25 C10.57246094 25.32960938 10.57246094 25.32960938 11.5390625 24.390625 C12.02117187 23.93171875 12.50328125 23.4728125 13 23 C12.195625 22.236875 11.39125 21.47375 10.5625 20.6875 C8 18 8 18 7 15 C6.01 14.67 5.02 14.34 4 14 C2.83203125 12.109375 2.83203125 12.109375 1.8125 9.75 C1.46832031 8.98171875 1.12414062 8.2134375 0.76953125 7.421875 C0 5 0 5 0 0 Z M12 7 C13 10 13 10 13 10 Z M38 7 C39 10 39 10 39 10 Z M13 11 C13.33 11.99 13.66 12.98 14 14 C14.66 13.34 15.32 12.68 16 12 C15.01 11.67 14.02 11.34 13 11 Z M18 11 C18 11.33 18 11.66 18 12 C19.98 12 21.96 12 24 12 C24 11.67 24 11.34 24 11 C22.02 11 20.04 11 18 11 Z M28 11 C28 11.33 28 11.66 28 12 C29.65 12 31.3 12 33 12 C33 11.67 33 11.34 33 11 C31.35 11 29.7 11 28 11 Z M37 11 C36.34 11.66 35.68 12.32 35 13 C35.99 13.33 36.98 13.66 38 14 C37.67 13.01 37.34 12.02 37 11 Z M14 14 C15 16 15 16 15 16 Z M16 18 C17 20 17 20 17 20 Z M34 18 C35 20 35 20 35 20 Z M25 19 C25 20.65 25 22.3 25 24 C25.33 24 25.66 24 26 24 C26 22.35 26 20.7 26 19 C25.67 19 25.34 19 25 19 Z M17 27 C17 27.66 17 28.32 17 29 C16.46890625 29.20625 15.9378125 29.4125 15.390625 29.625 C11.99226564 31.57961192 9.48944072 34.22123717 6.75 37 C6.19570312 37.5465625 5.64140625 38.093125 5.0703125 38.65625 C2.00784225 41.32600768 2.00784225 41.32600768 1 45 C-0.98 45.99 -0.98 45.99 -3 47 C-3 47.66 -3 48.32 -3 49 C-3.57234375 49.2475 -4.1446875 49.495 -4.734375 49.75 C-7.35010611 51.19316199 -9.14773456 52.88216222 -11.25 55 C-11.95640625 55.70125 -12.6628125 56.4025 -13.390625 57.125 C-15.21710399 58.84110768 -15.21710399 58.84110768 -15 61 C-16.32 61.66 -17.64 62.32 -19 63 C-19 63.66 -19 64.32 -19 65 C-26.59 65 -34.18 65 -42 65 C-42.33 65.99 -42.66 66.98 -43 68 C-26.5 68 -10 68 7 68 C8.158899 57.90974421 8.158899 57.90974421 5.0625 54.625 C4.381875 54.08875 3.70125 53.5525 3 53 C1.94925395 50.07292171 1.93156251 48.36785153 2.5 45.3125 C4 43 4 43 7.3125 41.5 C11 41 11 41 13.875 42.25 C16.55539441 44.45738363 16.91658653 45.37439895 17.375 48.8125 C17 52 17 52 14.5 54.1875 C11.55006049 57.50618195 11.66001216 58.51340248 11.6875 62.8125 C11.8421875 65.3803125 11.8421875 65.3803125 12 68 C15.63 68 19.26 68 23 68 C23.10778981 63.91596399 23.18722647 59.8347632 23.25 55.75 C23.28351563 54.59113281 23.31703125 53.43226563 23.3515625 52.23828125 C23.36445312 51.12324219 23.37734375 50.00820312 23.390625 48.859375 C23.41157227 47.83295898 23.43251953 46.80654297 23.45410156 45.74902344 C22.88402378 42.29790739 21.57934123 41.26481762 19 39 C17.77201534 35.80723987 17.82643718 34.47729776 19 31.25 C21 29 21 29 24.375 27.875 C28 28 28 28 30.9375 30.0625 C33 33 33 33 33.625 36.0625 C33.315625 37.5165625 33.315625 37.5165625 33 39 C32.16855469 39.45761719 31.33710937 39.91523437 30.48046875 40.38671875 C26.91923541 44.1386323 27.4880035 47.21827987 27.56054688 52.23828125 C27.60244141 53.39714844 27.64433594 54.55601562 27.6875 55.75 C27.71005859 56.92433594 27.73261719 58.09867188 27.75585938 59.30859375 C27.8147553 62.20627345 27.90443431 65.10329781 28 68 C31.63 68 35.26 68 39 68 C39 64.37 39 60.74 39 57 C37.68 56.34 36.36 55.68 35 55 C33.90213001 52.03803825 33.76542202 49.13887672 34 46 C35.92596171 43.03698199 37.22206169 42.24666337 40.5625 41.1875 C43 41 43 41 46 42 C46 36.48917729 40.82561971 32.97591134 37.13183594 29.22509766 C33.21993678 25.49101209 30.4111754 22.94339004 24.75 22.875 C21.17513293 23.29748429 19.22266585 24.12785386 17 27 Z M24 32 C23.34 32.66 22.68 33.32 22 34 C22 34.99 22 35.98 22 37 C22.66 37 23.32 37 24 37 C24 37.66 24 38.32 24 39 C25.65 38.67 27.3 38.34 29 38 C29 36.35 29 34.7 29 33 C26.60280568 32.32041397 26.60280568 32.32041397 24 32 Z M47 41 C47.350625 41.680625 47.70125 42.36125 48.0625 43.0625 C49.26464175 46.82921081 48.97146473 49.18353141 48 53 C47.319375 53.5775 46.63875 54.155 45.9375 54.75 C42.80370759 57.89436891 42.80370759 57.89436891 44 68 C60.5 68 77 68 94 68 C93.505 66.515 93.505 66.515 93 65 C92.45400146 65.09015381 91.90800293 65.18030762 91.34545898 65.27319336 C84.11312151 66.24797687 75.7841744 67.05178917 69.35961914 62.95361328 C62.00692051 57.3218985 55.87022086 50.10742286 49.87573242 43.09545898 C49.25674072 42.40395752 48.63774902 41.71245605 48 41 C47.67 41 47.34 41 47 41 Z M8 45 C7.34 46.65 6.68 48.3 6 50 C6.66 50.66 7.32 51.32 8 52 C10.60280568 51.67958603 10.60280568 51.67958603 13 51 C12.67 49.35 12.34 47.7 12 46 C10.68 45.67 9.36 45.34 8 45 Z M40 45 C39.34 45.66 38.68 46.32 38 47 C38.32041397 49.60280568 38.32041397 49.60280568 39 52 C40.65 52 42.3 52 44 52 C44.67958603 49.60280568 44.67958603 49.60280568 45 47 C44.34 46.34 43.68 45.68 43 45 C42.01 45 41.02 45 40 45 Z M-52 59 C-52.66 60.32 -53.32 61.64 -54 63 C-53.34 63 -52.68 63 -52 63 C-51.67 63.99 -51.34 64.98 -51 66 C-49.68 65.34 -48.36 64.68 -47 64 C-47.33 62.35 -47.66 60.7 -48 59 C-49.32 59 -50.64 59 -52 59 Z M99 59 C97.70366379 60.06645115 97.70366379 60.06645115 97.9375 62.5625 C97.958125 63.366875 97.97875 64.17125 98 65 C99.32 65.33 100.64 65.66 102 66 C102.99 64.68 103.98 63.36 105 62 C104.34 61.01 103.68 60.02 103 59 C101.68 59 100.36 59 99 59 Z " fill="#2A6188" transform="translate(89,75)"/>
<path d="M0 0 C1.26401866 0.47801886 2.52833959 0.95523923 3.79296875 1.43164062 C6.86503682 2.59246024 9.93381135 3.76125757 13 4.9375 C13 5.9275 13 6.9175 13 7.9375 C12.01 8.2675 11.02 8.5975 10 8.9375 C10.01160156 10.06929687 10.02320313 11.20109375 10.03515625 12.3671875 C10.04453454 13.84895669 10.0536347 15.33072765 10.0625 16.8125 C10.07087891 17.55886719 10.07925781 18.30523437 10.08789062 19.07421875 C10.11328125 24.7109375 10.11328125 24.7109375 9 26.9375 C7.68 26.9375 6.36 26.9375 5 26.9375 C4.67 21.6575 4.34 16.3775 4 10.9375 C1.03 11.4325 1.03 11.4325 -2 11.9375 C-2.02705729 13.70824917 -2.04642195 15.47911711 -2.0625 17.25 C-2.07410156 18.23613281 -2.08570313 19.22226562 -2.09765625 20.23828125 C-1.95770086 24.10664817 -1.39780684 25.56009351 1.4375 28.25 C4.87136282 31.85136832 5.91048112 34.87856571 6.125 39.8125 C6.08375 40.51375 6.0425 41.215 6 41.9375 C3.496551 43.1892245 2.3752823 42.82912596 -0.375 42.4375 C-5.57552853 41.830139 -10.43895202 42.19944621 -15.62890625 42.78125 C-16.41136719 42.8328125 -17.19382813 42.884375 -18 42.9375 C-19 41.9375 -19 41.9375 -19.09765625 39.21484375 C-19.08605469 38.11269531 -19.07445312 37.01054688 -19.0625 35.875 C-19.05347656 34.77027344 -19.04445312 33.66554687 -19.03515625 32.52734375 C-19.02355469 31.67269531 -19.01195312 30.81804688 -19 29.9375 C-20.28612676 30.99728933 -20.28612676 30.99728933 -20.09765625 33.44140625 C-20.08605469 34.45074219 -20.07445312 35.46007812 -20.0625 36.5 C-20.05347656 37.51191406 -20.04445312 38.52382812 -20.03515625 39.56640625 C-20.02355469 40.34886719 -20.01195312 41.13132813 -20 41.9375 C-22.48754786 43.18127393 -24.22655301 43.07056235 -27 43.0625 C-27.886875 43.06507812 -28.77375 43.06765625 -29.6875 43.0703125 C-32 42.9375 -32 42.9375 -34 41.9375 C-35.69196719 42.05011013 -37.3802213 42.22449205 -39.0625 42.4375 C-40.70372146 42.64471304 -42.34985054 42.82108734 -44 42.9375 C-45 41.9375 -45 41.9375 -45.375 39.5 C-44.83983617 34.41594365 -42.68555277 30.25879855 -40 25.9375 C-39.34 25.6075 -38.68 25.2775 -38 24.9375 C-37.34 24.2775 -36.68 23.6175 -36 22.9375 C-36.33 22.6075 -36.66 22.2775 -37 21.9375 C-37.07205511 20.25141034 -37.08386068 18.56249341 -37.0625 16.875 C-37.05347656 15.95589844 -37.04445313 15.03679688 -37.03515625 14.08984375 C-37.02355469 13.37957031 -37.01195313 12.66929688 -37 11.9375 C-37.78375 11.855 -38.5675 11.7725 -39.375 11.6875 C-44.177645 10.69384931 -48.49809489 8.85036482 -53 6.9375 C-53 6.2775 -53 5.6175 -53 4.9375 C-52.23856689 4.67533691 -51.47713379 4.41317383 -50.69262695 4.14306641 C-47.23214527 2.95081512 -43.77231747 1.75667734 -40.3125 0.5625 C-39.11431641 0.15 -37.91613281 -0.2625 -36.68164062 -0.6875 C-34.94624023 -1.28691406 -34.94624023 -1.28691406 -33.17578125 -1.8984375 C-31.58117065 -2.44830322 -31.58117065 -2.44830322 -29.9543457 -3.00927734 C-28.05869931 -3.68507426 -26.1801086 -4.41208353 -24.32885742 -5.20141602 C-16.57725818 -8.06753306 -7.14862067 -2.74395313 0 0 Z M-26 17.9375 C-25.67 18.5975 -25.34 19.2575 -25 19.9375 C-24.67 19.2775 -24.34 18.6175 -24 17.9375 C-24.66 17.9375 -25.32 17.9375 -26 17.9375 Z M-15 17.9375 C-14.34 18.5975 -13.68 19.2575 -13 19.9375 C-13 19.2775 -13 18.6175 -13 17.9375 C-13.66 17.9375 -14.32 17.9375 -15 17.9375 Z M-29 21.9375 C-28 23.9375 -28 23.9375 -28 23.9375 Z M-11 21.9375 C-10 23.9375 -10 23.9375 -10 23.9375 Z M-30 23.9375 C-29 25.9375 -29 25.9375 -29 25.9375 Z M-31 25.9375 C-30 27.9375 -30 27.9375 -30 27.9375 Z M-9 25.9375 C-8 27.9375 -8 27.9375 -8 27.9375 Z M-32 27.9375 C-31.67 28.9275 -31.34 29.9175 -31 30.9375 C-30.34 30.2775 -29.68 29.6175 -29 28.9375 C-29.99 28.6075 -30.98 28.2775 -32 27.9375 Z M-8 27.9375 C-8.66 28.5975 -9.32 29.2575 -10 29.9375 C-9.01 29.9375 -8.02 29.9375 -7 29.9375 C-7.33 29.2775 -7.66 28.6175 -8 27.9375 Z M-33 31.9375 C-32 34.9375 -32 34.9375 -32 34.9375 Z M-7 31.9375 C-6 34.9375 -6 34.9375 -6 34.9375 Z " fill="#067553" transform="translate(134,31.0625)"/>
<path d="M0 0 C-0.66 1.65 -1.32 3.3 -2 5 C-2.66 5 -3.32 5 -4 5 C-4 5.66 -4 6.32 -4 7 C-5.50390625 8.48046875 -5.50390625 8.48046875 -7.5625 10.1875 C-12.5836189 14.46343518 -17.27369086 18.87531183 -21.4375 24 C-24.11969306 27.14012846 -27.01003913 29.66603239 -30.14453125 32.3359375 C-32.39615694 34.35529023 -34.17772017 36.59198736 -36 39 C-38.13380504 41.55515209 -39.23790182 42.86510253 -42.56542969 43.45410156 C-43.50805664 43.4331543 -44.45068359 43.41220703 -45.421875 43.390625 C-46.95908203 43.37128906 -46.95908203 43.37128906 -48.52734375 43.3515625 C-50.12255859 43.30128906 -50.12255859 43.30128906 -51.75 43.25 C-53.36841797 43.22292969 -53.36841797 43.22292969 -55.01953125 43.1953125 C-57.68058788 43.14821415 -60.33984254 43.082456 -63 43 C-63.29519531 43.63292969 -63.59039062 44.26585937 -63.89453125 44.91796875 C-65 47 -65 47 -66.6875 48.3125 C-70.15265918 49.34268246 -72.52817876 48.92995212 -76 48 C-78.5 45.875 -78.5 45.875 -80 43 C-79.93743829 39.43398261 -79.34768397 36.84747968 -78 33.5625 C-75.13459988 31.32390615 -72.72522159 31.45076423 -69.1640625 31.6015625 C-67 32 -67 32 -64.4375 33.875 C-63 36 -63 36 -63 38 C-51.00276273 38.93786536 -51.00276273 38.93786536 -40.359375 34.484375 C-37.66042171 31.86112144 -35.37649009 28.91420098 -33 26 C-32.34 26 -31.68 26 -31 26 C-30.34 24.68 -29.68 23.36 -29 22 C-28.34 22 -27.68 22 -27 22 C-26.67 20.35 -26.34 18.7 -26 17 C-27.32 16.34 -28.64 15.68 -30 15 C-32.64988265 17.62093922 -35.29420143 20.24742198 -37.9375 22.875 C-38.69224609 23.62136719 -39.44699219 24.36773437 -40.22460938 25.13671875 C-40.94326172 25.85214844 -41.66191406 26.56757812 -42.40234375 27.3046875 C-43.06741943 27.96452637 -43.73249512 28.62436523 -44.41772461 29.30419922 C-46.0813711 30.92673932 -46.0813711 30.92673932 -47 33 C-52.61 33 -58.22 33 -64 33 C-64 31.68 -64 30.36 -64 29 C-62.67331299 29.06682983 -62.67331299 29.06682983 -61.31982422 29.13500977 C-54.12856498 29.12295199 -49.6353039 28.51464267 -44.2578125 23.52734375 C-42.51224405 21.69646556 -40.80127441 19.83202586 -39.125 17.9375 C-38.23425781 16.98810547 -37.34351563 16.03871094 -36.42578125 15.06054688 C-34.2511148 12.73388761 -32.11271987 10.38280282 -30 8 C-26.59787701 9.61382757 -23.89675481 11.58603766 -21 14 C-17.93663888 12.79785874 -17.93663888 12.79785874 -16.109375 10.18359375 C-14.78979335 7.58624819 -13.17646919 5.87558128 -11.125 3.8125 C-10.44695312 3.11769531 -9.76890625 2.42289062 -9.0703125 1.70703125 C-5.77425624 -1.01066042 -4.04764312 -1.34921437 0 0 Z M-73 37 C-73.66 38.32 -74.32 39.64 -75 41 C-74.34 41 -73.68 41 -73 41 C-72.67 41.99 -72.34 42.98 -72 44 C-70.68 43.34 -69.36 42.68 -68 42 C-68.33 40.35 -68.66 38.7 -69 37 C-70.32 37 -71.64 37 -73 37 Z " fill="#1B9973" transform="translate(110,97)"/>
<path d="M0 0 C7.60333308 4.16031433 13.07974987 9.78591393 19 16 C21.31 14.02 23.62 12.04 26 10 C29.76411823 11.88205912 31.16656437 13.04193527 33.8359375 16.09765625 C43.1094255 27.18819201 43.1094255 27.18819201 56.125 31.625 C59.4132132 31.4856064 59.4132132 31.4856064 62 31 C62 32.32 62 33.64 62 35 C56.55515114 36.20172413 51.35795865 36.88532765 46 35 C39.04489443 30.13277138 33.45601393 23.44663099 28 17 C26.02 17.99 26.02 17.99 24 19 C25.38468082 22.11853829 26.99070448 24.2375727 29.40625 26.63671875 C30.39818359 27.62575195 30.39818359 27.62575195 31.41015625 28.63476562 C32.09980469 29.31216797 32.78945312 29.98957031 33.5 30.6875 C34.18964844 31.37650391 34.87929687 32.06550781 35.58984375 32.77539062 C40.50393201 37.82303852 40.50393201 37.82303852 47.1328125 39.31640625 C47.93847656 39.35830078 48.74414062 39.40019531 49.57421875 39.44335938 C50.83685547 39.50233398 50.83685547 39.50233398 52.125 39.5625 C53.39923828 39.62727539 53.39923828 39.62727539 54.69921875 39.69335938 C56.79928223 39.79954236 58.89961948 39.90028497 61 40 C61.103125 39.38125 61.20625 38.7625 61.3125 38.125 C62 36 62 36 65 34 C71.96517413 33.33665008 71.96517413 33.33665008 75.4375 35.5625 C77.53567796 38.83565762 78 41.11417724 78 45 C76.5 47.875 76.5 47.875 74 50 C69.99196403 51.1659741 67.94717289 51.43240501 64.125 49.6875 C62 48 62 48 61 46 C60.16872841 46.10970123 60.16872841 46.10970123 59.32066345 46.22161865 C49.84184194 47.23330565 41.24485153 47.23666665 33.41845703 41.24804688 C28.72454989 37.14287752 24.41669433 32.69510688 20.19555664 28.109375 C17.53530823 25.22047102 14.80658407 22.41279839 12.05664062 19.609375 C10.32639903 17.81144877 8.60032161 16.00950366 6.87890625 14.203125 C6.06780899 13.35711731 5.25671173 12.51110962 4.42103577 11.63946533 C3.69113937 10.8422406 2.96124298 10.04501587 2.20922852 9.22363281 C1.56276871 8.52715637 0.9163089 7.83067993 0.2502594 7.11309814 C-1 5 -1 5 -0.70057678 2.23602295 C-0.46938644 1.49813538 -0.23819611 0.7602478 0 0 Z M67 39 C65.70366379 40.06645115 65.70366379 40.06645115 65.9375 42.5625 C65.958125 43.366875 65.97875 44.17125 66 45 C67.32 45.33 68.64 45.66 70 46 C70.99 44.68 71.98 43.36 73 42 C72.34 41.01 71.68 40.02 71 39 C69.68 39 68.36 39 67 39 Z " fill="#219474" transform="translate(121,95)"/>
<path d="M0 0 C1.98 0 3.96 0 6 0 C6 1.32 6 2.64 6 4 C6.66 4 7.32 4 8 4 C8 6.97 8 9.94 8 13 C9.65 13 11.3 13 13 13 C13 10.36 13 7.72 13 5 C14.32 5 15.64 5 17 5 C17 7.64 17 10.28 17 13 C18.65 13 20.3 13 22 13 C21.938125 11.88625 21.87625 10.7725 21.8125 9.625 C21.9053125 7.830625 21.9053125 7.830625 22 6 C25.8503105 3.43312633 27.58569763 4.16711276 32 5 C32.268125 6.134375 32.53625 7.26875 32.8125 8.4375 C33.4003125 10.2009375 33.4003125 10.2009375 34 12 C34.99 12.33 35.98 12.66 37 13 C36.95875 12.05125 36.9175 11.1025 36.875 10.125 C37 7 37 7 39 5 C42.01826653 4.72759327 44.96370622 4.91324875 48 5 C48 8.96 48 12.92 48 17 C38.1 17 28.2 17 18 17 C18 18.32 18 19.64 18 21 C15.69 21 13.38 21 11 21 C11 19.68 11 18.36 11 17 C9.87851562 17.05220703 9.87851562 17.05220703 8.734375 17.10546875 C7.74953125 17.13253906 6.7646875 17.15960938 5.75 17.1875 C4.77546875 17.22230469 3.8009375 17.25710937 2.796875 17.29296875 C-0.43179714 16.95476985 -1.75781375 16.32679705 -4 14 C-4.25 10.3125 -4.25 10.3125 -4 7 C-2.68 6.34 -1.36 5.68 0 5 C0 3.35 0 1.7 0 0 Z M1 8 C0.67 9.32 0.34 10.64 0 12 C1.32 12.33 2.64 12.66 4 13 C4 11.35 4 9.7 4 8 C3.01 8 2.02 8 1 8 Z M26 8 C26 9.65 26 11.3 26 13 C26.99 13 27.98 13 29 13 C29 11.35 29 9.7 29 8 C28.01 8 27.02 8 26 8 Z M42 8 C41.67 9.65 41.34 11.3 41 13 C41.99 13 42.98 13 44 13 C44 11.35 44 9.7 44 8 C43.34 8 42.68 8 42 8 Z " fill="#464748" transform="translate(36,158)"/>
<path d="M0 0 C0 8.25 0 16.5 0 25 C-2.48754786 26.24377393 -4.22655301 26.13306235 -7 26.125 C-7.886875 26.12757812 -8.77375 26.13015625 -9.6875 26.1328125 C-12 26 -12 26 -14 25 C-15.69196719 25.11261013 -17.3802213 25.28699205 -19.0625 25.5 C-20.70372146 25.70721304 -22.34985054 25.88358734 -24 26 C-25 25 -25 25 -25.375 22.5625 C-24.83983617 17.47844365 -22.68555277 13.32129855 -20 9 C-19.34 8.67 -18.68 8.34 -18 8 C-17.0925 7.195625 -16.185 6.39125 -15.25 5.5625 C-11.92542857 2.74313305 -8.45299769 1 -4 1 C-2 0 -2 0 0 0 Z M-9 5 C-8 7 -8 7 -8 7 Z M-10 7 C-9 9 -9 9 -9 9 Z M-11 9 C-10 11 -10 11 -10 11 Z M-12 11 C-11.67 11.99 -11.34 12.98 -11 14 C-10.34 13.34 -9.68 12.68 -9 12 C-9.99 11.67 -10.98 11.34 -12 11 Z M-13 15 C-12 18 -12 18 -12 18 Z " fill="#2B6089" transform="translate(114,48)"/>
<path d="M0 0 C3.35594194 1.2632842 5.63290296 2.25915079 8 5 C8.66 4.34 9.32 3.68 10 3 C12.625 3.375 12.625 3.375 15 4 C15 4.66 15 5.32 15 6 C15.99 6.33 16.98 6.66 18 7 C18 7.66 18 8.32 18 9 C18.78375 9.7425 19.5675 10.485 20.375 11.25 C23.84489566 14.88512879 24.90826757 17.89015408 25.125 22.875 C25.08375 23.57625 25.0425 24.2775 25 25 C22.496551 26.2517245 21.3752823 25.89162596 18.625 25.5 C13.42447147 24.892639 8.56104798 25.26194621 3.37109375 25.84375 C2.58863281 25.8953125 1.80617188 25.946875 1 26 C0 25 0 25 -0.11352539 22.59155273 C-0.10828857 21.54942627 -0.10305176 20.5072998 -0.09765625 19.43359375 C-0.09443359 18.30888672 -0.09121094 17.18417969 -0.08789062 16.02539062 C-0.07951172 14.84138672 -0.07113281 13.65738281 -0.0625 12.4375 C-0.05798828 11.24962891 -0.05347656 10.06175781 -0.04882812 8.83789062 C-0.03699675 5.89187774 -0.02051287 2.94596319 0 0 Z M10 9 C11 11 11 11 11 11 Z M11 11 C10.34 11.66 9.68 12.32 9 13 C9.99 13 10.98 13 12 13 C11.67 12.34 11.34 11.68 11 11 Z M12 15 C13 18 13 18 13 18 Z " fill="#2C5B80" transform="translate(115,48)"/>
<path d="M0 0 C1.65 0 3.3 0 5 0 C4.67 2.97 4.34 5.94 4 9 C5.65 9 7.3 9 9 9 C9 6.36 9 3.72 9 1 C10.32 0.67 11.64 0.34 13 0 C13.33 0.66 13.66 1.32 14 2 C14.99 1.34 15.98 0.68 17 0 C20.0625 0.125 20.0625 0.125 23 1 C24.86790938 3.54714915 25 4.80869 25 8 C25.99 8 26.98 8 28 8 C28.33 5.69 28.66 3.38 29 1 C35.22580645 -0.43672457 35.22580645 -0.43672457 38.4375 1.375 C40 4 40 4 40 13 C28.12 13 16.24 13 4 13 C3.67 14.32 3.34 15.64 3 17 C1.35 17.33 -0.3 17.66 -2 18 C-2 16.68 -2 15.36 -2 14 C-1.34 14 -0.68 14 0 14 C0 9.38 0 4.76 0 0 Z M17 4 C15.61767557 5.62626404 14.28062485 7.2925002 13 9 C15.31 9 17.62 9 20 9 C19.67 7.35 19.34 5.7 19 4 C18.34 4 17.68 4 17 4 Z M32 4 C32 5.65 32 7.3 32 9 C33.32 9 34.64 9 36 9 C35.67 7.35 35.34 5.7 35 4 C34.01 4 33.02 4 32 4 Z " fill="#484849" transform="translate(115,162)"/>
<path d="M0 0 C2.1640625 0.3984375 2.1640625 0.3984375 4.7265625 2.2734375 C6.1640625 4.3984375 6.1640625 4.3984375 6.1640625 6.3984375 C13.4240625 6.3984375 20.6840625 6.3984375 28.1640625 6.3984375 C28.1640625 5.7384375 28.1640625 5.0784375 28.1640625 4.3984375 C29.8140625 3.7384375 31.4640625 3.0784375 33.1640625 2.3984375 C33.52073989 5.60853397 33.51150289 6.95346288 31.48730469 9.54589844 C28.64905174 11.80910392 27.32801742 11.86874761 23.7421875 11.7890625 C22.20498047 11.76972656 22.20498047 11.76972656 20.63671875 11.75 C19.04150391 11.69972656 19.04150391 11.69972656 17.4140625 11.6484375 C16.33511719 11.63039062 15.25617187 11.61234375 14.14453125 11.59375 C11.48347462 11.54665165 8.82421996 11.4808935 6.1640625 11.3984375 C5.86886719 12.03136719 5.57367188 12.66429687 5.26953125 13.31640625 C4.1640625 15.3984375 4.1640625 15.3984375 2.4765625 16.7109375 C-0.98859668 17.74111996 -3.36411626 17.32838962 -6.8359375 16.3984375 C-9.3359375 14.2734375 -9.3359375 14.2734375 -10.8359375 11.3984375 C-10.77337579 7.83242011 -10.18362147 5.24591718 -8.8359375 1.9609375 C-5.97053738 -0.27765635 -3.56115909 -0.15079827 0 0 Z M-3.8359375 5.3984375 C-4.4959375 6.7184375 -5.1559375 8.0384375 -5.8359375 9.3984375 C-5.1759375 9.3984375 -4.5159375 9.3984375 -3.8359375 9.3984375 C-3.5059375 10.3884375 -3.1759375 11.3784375 -2.8359375 12.3984375 C-1.5159375 11.7384375 -0.1959375 11.0784375 1.1640625 10.3984375 C0.8340625 8.7484375 0.5040625 7.0984375 0.1640625 5.3984375 C-1.1559375 5.3984375 -2.4759375 5.3984375 -3.8359375 5.3984375 Z " fill="#139E79" transform="translate(40.8359375,128.6015625)"/>
<path d="M0 0 C2.35119399 3.52679099 2.21443452 5.02879485 2.125 9.1875 C2.10695312 10.27417969 2.08890625 11.36085937 2.0703125 12.48046875 C2.04710937 13.31191406 2.02390625 14.14335937 2 15 C3.97986082 14.88652381 5.95891598 14.7589065 7.9375 14.625 C9.03964844 14.55539063 10.14179687 14.48578125 11.27734375 14.4140625 C12.17582031 14.27742187 13.07429688 14.14078125 14 14 C15.14814997 11.70370006 15.30769809 9.92301914 15.5625 7.375 C15.68818359 6.14910156 15.68818359 6.14910156 15.81640625 4.8984375 C15.87699219 4.27195313 15.93757813 3.64546875 16 3 C16.33 3 16.66 3 17 3 C17.495 8.94 17.495 8.94 18 15 C33.84 15 49.68 15 66 15 C66 15.66 66 16.32 66 17 C50.01461349 17.0466937 34.02924905 17.08197591 18.04381084 17.10362434 C10.62171335 17.11394267 3.19965821 17.12801359 -4.22241211 17.15087891 C-10.69050203 17.1707958 -17.15856129 17.18371239 -23.62668103 17.18817699 C-27.05239639 17.19078726 -30.47802403 17.19693401 -33.90371132 17.21146011 C-37.72529384 17.22753393 -41.54679006 17.22798078 -45.3684082 17.22705078 C-47.07744072 17.23783661 -47.07744072 17.23783661 -48.82099915 17.24884033 C-50.37959656 17.24471634 -50.37959656 17.24471634 -51.96968079 17.24050903 C-52.8739597 17.24235262 -53.77823862 17.24419621 -54.70991993 17.24609566 C-57 17 -57 17 -60 15 C-46.14 15 -32.28 15 -18 15 C-17.19955576 10.99777881 -16.55450162 7.03994039 -16 3 C-14 5 -14 5 -13.8046875 7.1640625 C-13.86979167 9.44270833 -13.93489583 11.72135417 -14 14 C-9.71 14 -5.42 14 -1 14 C-0.67 9.38 -0.34 4.76 0 0 Z " fill="#2E68A2" transform="translate(114,130)"/>
<path d="M0 0 C5.63587931 0.6559794 10.60988342 2.56032841 15.875 4.5625 C16.75414062 4.89185547 17.63328125 5.22121094 18.5390625 5.56054688 C20.69458053 6.36886614 22.84809441 7.18212294 25 8 C25 8.99 25 9.98 25 11 C24.01 11.33 23.02 11.66 22 12 C22.01160156 13.13179687 22.02320313 14.26359375 22.03515625 15.4296875 C22.04453454 16.91145669 22.0536347 18.39322765 22.0625 19.875 C22.07087891 20.62136719 22.07925781 21.36773437 22.08789062 22.13671875 C22.11328125 27.7734375 22.11328125 27.7734375 21 30 C19.68 30 18.36 30 17 30 C16.67 24.72 16.34 19.44 16 14 C14.02 14.33 12.04 14.66 10 15 C10 18.3 10 21.6 10 25 C2.85322896 25.16242661 2.85322896 25.16242661 0 24 C-0.33 23.01 -0.66 22.02 -1 21 C-2.72880982 20.94550162 -4.45812712 20.90698312 -6.1875 20.875 C-7.15042969 20.85179688 -8.11335938 20.82859375 -9.10546875 20.8046875 C-12.14354281 21.00968575 -14.22113261 21.8137272 -17 23 C-17.99 23 -18.98 23 -20 23 C-20 22.34 -20 21.68 -20 21 C-15.72115394 18.8896565 -11.86135858 18.75871261 -7.1875 18.875 C-6.14819336 18.88853516 -6.14819336 18.88853516 -5.08789062 18.90234375 C-3.39177605 18.92573843 -1.69584129 18.96160359 0 19 C0.33 19.99 0.66 20.98 1 22 C3.64 22 6.28 22 9 22 C8.67 19.03 8.34 16.06 8 13 C5.69 12.01 3.38 11.02 1 10 C4 9 4 9 7 9 C7.33 8.01 7.66 7.02 8 6 C7.34 5.67 6.68 5.34 6 5 C3.82074661 3.43366162 1.90105479 1.90105479 0 0 Z " fill="#0A704F" transform="translate(122,28)"/>
<path d="M0 0 C3.32072528 1.57996613 5.68029835 3.07889421 8 6 C7.875 8.1875 7.875 8.1875 7 10 C6.34 10.33 5.68 10.66 5 11 C4.01 9.68 3.02 8.36 2 7 C-1.00911224 8.3488982 -3.09916363 9.85165713 -5.41796875 12.1875 C-6.03220703 12.80367187 -6.64644531 13.41984375 -7.27929688 14.0546875 C-7.90900391 14.69664063 -8.53871094 15.33859375 -9.1875 16 C-10.14946289 16.96292969 -10.14946289 16.96292969 -11.13085938 17.9453125 C-14.47060322 21.17205342 -14.47060322 21.17205342 -17 25 C-22.61 25 -28.22 25 -34 25 C-34 23.68 -34 22.36 -34 21 C-32.67331299 21.06682983 -32.67331299 21.06682983 -31.31982422 21.13500977 C-24.12856498 21.12295199 -19.6353039 20.51464267 -14.2578125 15.52734375 C-12.51224405 13.69646556 -10.80127441 11.83202586 -9.125 9.9375 C-8.23425781 8.98810547 -7.34351562 8.03871094 -6.42578125 7.06054688 C-4.2511148 4.73388761 -2.11271987 2.38280282 0 0 Z " fill="#434848" transform="translate(80,105)"/>
<path d="M0 0 C3.4436626 1.45531761 5.38883494 3.29637585 7.8359375 6.09765625 C17.1094255 17.18819201 17.1094255 17.18819201 30.125 21.625 C33.4132132 21.4856064 33.4132132 21.4856064 36 21 C36 22.32 36 23.64 36 25 C30.55515114 26.20172413 25.35795865 26.88532765 20 25 C13.04489443 20.13277138 7.45601393 13.44663099 2 7 C1.4225 7.33 0.845 7.66 0.25 8 C-2 9 -2 9 -6 9 C-5.52797514 4.75177626 -3.03344482 2.80010291 0 0 Z " fill="#4C504F" transform="translate(147,105)"/>
<path d="M0 0 C1.65 0 3.3 0 5 0 C4.67 2.97 4.34 5.94 4 9 C5.65 9 7.3 9 9 9 C9 6.36 9 3.72 9 1 C10.32 0.67 11.64 0.34 13 0 C13.33 0.66 13.66 1.32 14 2 C14.99 1.34 15.98 0.68 17 0 C20.1875 0.375 20.1875 0.375 23 1 C22.34 2.65 21.68 4.3 21 6 C20.46375 5.731875 19.9275 5.46375 19.375 5.1875 C16.66397735 4.70825704 16.66397735 4.70825704 13.875 7.375 C12.92625 8.24125 11.9775 9.1075 11 10 C10.01 10.495 10.01 10.495 9 11 C11.31 11.33 13.62 11.66 16 12 C16 12.33 16 12.66 16 13 C12.04 13 8.08 13 4 13 C3.67 14.32 3.34 15.64 3 17 C1.35 17.33 -0.3 17.66 -2 18 C-2 16.68 -2 15.36 -2 14 C-1.34 14 -0.68 14 0 14 C0 9.38 0 4.76 0 0 Z " fill="#404040" transform="translate(115,162)"/>
<path d="M0 0 C4.62 0 9.24 0 14 0 C13.814375 1.546875 13.62875 3.09375 13.4375 4.6875 C13.06296765 8.35479593 12.92633329 11.42111097 14 15 C13.01 15.66 12.02 16.32 11 17 C10.34 17.66 9.68 18.32 9 19 C8.731875 18.360625 8.46375 17.72125 8.1875 17.0625 C7.11332248 14.66868314 7.11332248 14.66868314 4 14 C2.83203125 12.109375 2.83203125 12.109375 1.8125 9.75 C1.46832031 8.98171875 1.12414062 8.2134375 0.76953125 7.421875 C0 5 0 5 0 0 Z " fill="#325D83" transform="translate(89,75)"/>
<path d="M0 0 C1.32 0 2.64 0 4 0 C4 5.61 4 11.22 4 17 C1.36 17 -1.28 17 -4 17 C-5.78969026 19.42672567 -5.78969026 19.42672567 -7 22 C-8.32 22 -9.64 22 -11 22 C-11 20.68 -11 19.36 -11 18 C-10.34 18 -9.68 18 -9 18 C-9 13.38 -9 8.76 -9 4 C-7.68 4 -6.36 4 -5 4 C-5 6.97 -5 9.94 -5 13 C-3.35 13 -1.7 13 0 13 C0 8.71 0 4.42 0 0 Z " fill="#424343" transform="translate(96,158)"/>
<path d="M0 0 C2.1640625 0.3984375 2.1640625 0.3984375 4.7265625 2.2734375 C6.1640625 4.3984375 6.1640625 4.3984375 6.1640625 6.3984375 C12.4340625 6.3984375 18.7040625 6.3984375 25.1640625 6.3984375 C24.8340625 7.0584375 24.5040625 7.7184375 24.1640625 8.3984375 C16.9040625 8.7284375 9.6440625 9.0584375 2.1640625 9.3984375 C1.8340625 10.7184375 1.5040625 12.0384375 1.1640625 13.3984375 C-0.4859375 13.3984375 -2.1359375 13.3984375 -3.8359375 13.3984375 C-4.1659375 12.4084375 -4.4959375 11.4184375 -4.8359375 10.3984375 C-5.4959375 10.3984375 -6.1559375 10.3984375 -6.8359375 10.3984375 C-6.5059375 9.7384375 -6.1759375 9.0784375 -5.8359375 8.3984375 C-4.5159375 9.3884375 -3.1959375 10.3784375 -1.8359375 11.3984375 C-1.1759375 11.0684375 -0.5159375 10.7384375 0.1640625 10.3984375 C0.1640625 9.0784375 0.1640625 7.7584375 0.1640625 6.3984375 C-1.1559375 6.0684375 -2.4759375 5.7384375 -3.8359375 5.3984375 C-4.1659375 6.0584375 -4.4959375 6.7184375 -4.8359375 7.3984375 C-5.4959375 6.4084375 -6.1559375 5.4184375 -6.8359375 4.3984375 C-8.06861098 5.40679812 -8.06861098 5.40679812 -7.93359375 7.46484375 C-7.92199219 8.28855469 -7.91039062 9.11226562 -7.8984375 9.9609375 C-7.88941406 10.78722656 -7.88039062 11.61351562 -7.87109375 12.46484375 C-7.85949219 13.10292969 -7.84789062 13.74101562 -7.8359375 14.3984375 C-9.34375 13.11328125 -9.34375 13.11328125 -10.8359375 11.3984375 C-10.70924764 7.91446631 -10.15786865 5.18314468 -8.8359375 1.9609375 C-5.97053738 -0.27765635 -3.56115909 -0.15079827 0 0 Z " fill="#1B9774" transform="translate(40.8359375,128.6015625)"/>
<path d="M0 0 C2.00784185 -0.00356 4.01449117 0.14456639 6.015625 0.30859375 C6.0965973 2.7467596 6.15609472 5.18223759 6.203125 7.62109375 C6.24083008 8.6565332 6.24083008 8.6565332 6.27929688 9.71289062 C6.35305851 14.80244348 6.35305851 14.80244348 4.703125 17.27734375 C2.16677003 18.82733845 -0.0863334 18.50179652 -2.984375 18.30859375 C-2.984375 16.98859375 -2.984375 15.66859375 -2.984375 14.30859375 C-2.324375 13.97859375 -1.664375 13.64859375 -0.984375 13.30859375 C-1.974375 12.64859375 -2.964375 11.98859375 -3.984375 11.30859375 C-5.06276259 7.84234792 -5.17632889 5.89725235 -4.046875 2.43359375 C-1.984375 0.30859375 -1.984375 0.30859375 0 0 Z M0.015625 4.30859375 C-0.314375 5.62859375 -0.644375 6.94859375 -0.984375 8.30859375 C0.335625 8.63859375 1.655625 8.96859375 3.015625 9.30859375 C3.015625 7.65859375 3.015625 6.00859375 3.015625 4.30859375 C2.025625 4.30859375 1.035625 4.30859375 0.015625 4.30859375 Z " fill="#444344" transform="translate(182.984375,161.69140625)"/>
<path d="M0 0 C5.625 2.25 5.625 2.25 8 5 C8.66 4.34 9.32 3.68 10 3 C12.625 3.375 12.625 3.375 15 4 C15 4.66 15 5.32 15 6 C15.99 6.33 16.98 6.66 18 7 C17 10 17 10 15.21484375 10.94921875 C9.92037753 12.6656066 5.56359492 13.30346881 0 13 C0 8.71 0 4.42 0 0 Z M10 9 C11 11 11 11 11 11 Z " fill="#25618D" transform="translate(115,48)"/>
<path d="M0 0 C3.2800053 0.57258713 4.78509835 1.47582941 7 3.9375 C11.64706917 9.07705748 16.3791657 9.49857888 23 9.9375 C23.80695313 10.01806641 24.61390625 10.09863281 25.4453125 10.18164062 C27.73740082 10.33482475 29.73785112 10.4078585 32 10 C34.39465228 7.63818327 34.39465228 7.63818327 36 5 C39.25 4.6875 39.25 4.6875 42 5 C41.67 5.66 41.34 6.32 41 7 C40.195625 7.268125 39.39125 7.53625 38.5625 7.8125 C35.76643155 8.76872305 35.76643155 8.76872305 34.83984375 11.57421875 C34.56269531 12.37472656 34.28554687 13.17523438 34 14 C30.26948771 13.97714092 26.54201812 13.89975327 22.8125 13.8125 C21.75740234 13.80669922 20.70230469 13.80089844 19.61523438 13.79492188 C11.74794403 13.57156032 11.74794403 13.57156032 7.96875 10.68359375 C6.99421875 9.35521484 6.99421875 9.35521484 6 8 C5.40574219 7.34515625 4.81148437 6.6903125 4.19921875 6.015625 C3.45091797 5.14164063 3.45091797 5.14164063 2.6875 4.25 C2.17574219 3.65703125 1.66398438 3.0640625 1.13671875 2.453125 C0 1 0 1 0 0 Z " fill="#0FA57A" transform="translate(150,126)"/>
<path d="M0 0 C3.08161282 2.76554997 3.93702206 4.16554232 4.25 8.3125 C4.1675 9.199375 4.085 10.08625 4 11 C3.02804688 11.32613281 2.05609375 11.65226562 1.0546875 11.98828125 C-2.41319298 13.75910308 -2.41319298 13.75910308 -2.8046875 17.79296875 C-2.85768559 19.25704106 -2.88011798 20.7224777 -2.875 22.1875 C-2.895625 22.93708984 -2.91625 23.68667969 -2.9375 24.45898438 C-2.98454518 26.30550787 -2.99574887 28.15288219 -3 30 C-5.68547893 25.97178161 -5.33145825 22.65969064 -5.4609375 17.91015625 C-6.10892431 14.41196658 -7.30214578 13.23029781 -10 11 C-7 11 -7 11 -4 12 C-1.85744207 11.61067144 -1.85744207 11.61067144 0 11 C-0.33 8.69 -0.66 6.38 -1 4 C-2.65 3.67 -4.3 3.34 -6 3 C-7.32 5.31 -8.64 7.62 -10 10 C-11.31501363 7.83409519 -12.03022952 6.49878708 -11.875 3.9375 C-9.3676053 -1.61458827 -5.40758003 -1.54502287 0 0 Z " fill="#28669D" transform="translate(119,103)"/>
<path d="M0 0 C2 2.125 2 2.125 3 5 C2.8125 8.75 2.8125 8.75 2 12 C1.01 12.495 1.01 12.495 0 13 C0 12.01 0 11.02 0 10 C-0.99 10 -1.98 10 -3 10 C-3.33 8.35 -3.66 6.7 -4 5 C-5.32 5.33 -6.64 5.66 -8 6 C-8 7.32 -8 8.64 -8 10 C-6.68 10.66 -5.36 11.32 -4 12 C-5.66611905 12.042721 -7.33382885 12.04063832 -9 12 C-9.33 11.67 -9.66 11.34 -10 11 C-10 9 -10 7 -10 5 C-10.33 4.67 -10.66 4.34 -11 4 C-10.67 7.3 -10.34 10.6 -10 14 C-10.66 14 -11.32 14 -12 14 C-13.82332792 11.31863541 -14 9.80295881 -14 6.5 C-13 3 -13 3 -10.375 0.5 C-6.26335746 -1.32739668 -4.2703197 -1.36972519 0 0 Z " fill="#265F86" transform="translate(136,116)"/>
<path d="M0 0 C3.57844494 1.78922247 5.5597889 2.92714158 8 6 C7.875 8.1875 7.875 8.1875 7 10 C6.01 10.495 6.01 10.495 5 11 C4.01 9.68 3.02 8.36 2 7 C-0.99220268 8.36370299 -3.29026529 9.94908083 -5.75 12.125 C-6.36359375 12.66382812 -6.9771875 13.20265625 -7.609375 13.7578125 C-8.06828125 14.16773437 -8.5271875 14.57765625 -9 15 C-10.32 14.34 -11.64 13.68 -13 13 C-8.71 8.71 -4.42 4.42 0 0 Z " fill="#3C4543" transform="translate(80,105)"/>
<path d="M0 0 C0.33 0.66 0.66 1.32 1 2 C1.66 2 2.32 2 3 2 C3.33 5.3 3.66 8.6 4 12 C0.37 12 -3.26 12 -7 12 C-6.96744792 9.98177083 -6.93489583 7.96354167 -6.90234375 5.9453125 C-6.87350758 3.91814596 -6.87350758 3.91814596 -8 2 C-6.865625 1.855625 -5.73125 1.71125 -4.5625 1.5625 C-1.19222799 1.38828522 -1.19222799 1.38828522 0 0 Z " fill="#30669D" transform="translate(123,60)"/>
<path d="M0 0 C-0.33 3.3 -0.66 6.6 -1 10 C-4.63 10 -8.26 10 -12 10 C-11.125 3.25 -11.125 3.25 -10 1 C-6.52674819 -0.1577506 -3.63932552 -0.06866652 0 0 Z " fill="#326BA3" transform="translate(114,62)"/>
<path d="M0 0 C6.75 0.75 6.75 0.75 9 3 C9.44921875 5.12890625 9.44921875 5.12890625 9.6875 7.5625 C9.77386719 8.36816406 9.86023438 9.17382812 9.94921875 10.00390625 C9.97435547 10.99197266 9.97435547 10.99197266 10 12 C9 13 9 13 6.71484375 13.09765625 C5.34005859 13.08025391 5.34005859 13.08025391 3.9375 13.0625 C3.01839844 13.05347656 2.09929687 13.04445312 1.15234375 13.03515625 C0.44207031 13.02355469 -0.26820313 13.01195312 -1 13 C-1.33 11.68 -1.66 10.36 -2 9 C0.31 9 2.62 9 5 9 C4.88693303 7.04105639 4.88693303 7.04105639 4 5 C1.50965614 3.70339566 1.50965614 3.70339566 -1 3 C-0.67 2.01 -0.34 1.02 0 0 Z " fill="#424242" transform="translate(162,162)"/>
<path d="M0 0 C2.80163026 4.2024454 2.14489712 7.00104935 2 12 C-2.29 12 -6.58 12 -11 12 C-11 11.67 -11 11.34 -11 11 C-10.28972656 10.95101562 -9.57945312 10.90203125 -8.84765625 10.8515625 C-7.46900391 10.73941406 -7.46900391 10.73941406 -6.0625 10.625 C-5.14597656 10.55539063 -4.22945312 10.48578125 -3.28515625 10.4140625 C-2.15400391 10.20910156 -2.15400391 10.20910156 -1 10 C-0.67 9.34 -0.34 8.68 0 8 C-0.66 8 -1.32 8 -2 8 C-2.103125 7.360625 -2.20625 6.72125 -2.3125 6.0625 C-2.539375 5.381875 -2.76625 4.70125 -3 4 C-3.99 3.67 -4.98 3.34 -6 3 C-6.33 4.65 -6.66 6.3 -7 8 C-7.99 7.67 -8.98 7.34 -10 7 C-9.74438677 4.6568787 -9.40729228 2.32156597 -9 0 C-5.85135005 -1.57432497 -3.35512575 -0.71895552 0 0 Z " fill="#434345" transform="translate(153,163)"/>
<path d="M0 0 C0.52992692 1.45505358 1.0486789 2.91418127 1.5625 4.375 C1.85253906 5.18710938 2.14257812 5.99921875 2.44140625 6.8359375 C3 9 3 9 2 11 C-0.64 11 -3.28 11 -6 11 C-6.33 7.37 -6.66 3.74 -7 0 C-4.3333581 -1.33332095 -2.83319697 -0.67102033 0 0 Z " fill="#326CA5" transform="translate(136,61)"/>
<path d="M0 0 C2.33294775 -0.04241723 4.66702567 -0.04092937 7 0 C9.43920144 2.43920144 9 7.71292119 9 11 C7.02 11.33 5.04 11.66 3 12 C-0.42857143 4.71428571 -0.42857143 4.71428571 0 0 Z " fill="#336CA4" transform="translate(91,76)"/>
<path d="M0 0 C1.8125 0.0859375 1.8125 0.0859375 4 0.375 C5.0828125 0.51035156 5.0828125 0.51035156 6.1875 0.6484375 C8 1 8 1 9 2 C9.14115161 4.67058851 9.04247107 7.32432238 9 10 C6.36 10.33 3.72 10.66 1 11 C-1.08997373 7.60379269 -1.2632246 4.94836905 -1 1 C-0.67 0.67 -0.34 0.34 0 0 Z " fill="#326CA6" transform="translate(103,75)"/>
<path d="M0 0 C-0.14148989 1.6045556 -0.28835686 3.20863767 -0.4375 4.8125 C-0.51871094 5.70582031 -0.59992188 6.59914063 -0.68359375 7.51953125 C-1 10 -1 10 -2 13 C-4.64 13 -7.28 13 -10 13 C-9.67925956 11.66358148 -9.34135927 10.33130115 -9 9 C-8.773125 7.80375 -8.54625 6.6075 -8.3125 5.375 C-7 2 -7 2 -3.9375 0.5625 C-1 0 -1 0 0 0 Z " fill="#346EA7" transform="translate(100,59)"/>
<path d="M0 0 C0.66 0.33 1.32 0.66 2 1 C2.02690844 3.62506802 2.04679404 6.24986173 2.0625 8.875 C2.07087891 9.62136719 2.07925781 10.36773437 2.08789062 11.13671875 C2.11328125 16.7734375 2.11328125 16.7734375 1 19 C-0.32 19 -1.64 19 -3 19 C-4.55870166 5.98273481 -4.55870166 5.98273481 -2 1 C-1.34 0.67 -0.68 0.34 0 0 Z " fill="#B9AF33" transform="translate(142,39)"/>
<path d="M0 0 C3.875 1.75 3.875 1.75 5 4 C4.01 4 3.02 4 2 4 C2.43570313 4.35191406 2.87140625 4.70382813 3.3203125 5.06640625 C7.70232497 8.69911356 11.42563217 12.57459221 15 17 C14.67 17.66 14.34 18.32 14 19 C10.04 15.04 6.08 11.08 2 7 C0.02 7.99 0.02 7.99 -2 9 C-3.32 9 -4.64 9 -6 9 C-5.52797514 4.75177626 -3.03344482 2.80010291 0 0 Z " fill="#404644" transform="translate(147,105)"/>
<path d="M0 0 C0.125 6.75 0.125 6.75 -1 9 C-3.64 8.67 -6.28 8.34 -9 8 C-9 5.69 -9 3.38 -9 1 C-6.04335481 -0.4783226 -3.25770263 -0.06032783 0 0 Z " fill="#336EA8" transform="translate(126,76)"/>
<path d="M0 0 C-0.309375 1.0725 -0.61875 2.145 -0.9375 3.25 C-1.66812096 5.82866222 -2.37482904 8.39512102 -3 11 C-4.66611905 11.042721 -6.33382885 11.04063832 -8 11 C-9 10 -9 10 -9.25 6.625 C-9 3 -9 3 -7.875 1.0625 C-5.214973 -0.44484863 -2.99793795 -0.19986253 0 0 Z " fill="#346DA7" transform="translate(139,76)"/>
<path d="M0 0 C3.08161282 2.76554997 3.93702206 4.16554232 4.25 8.3125 C4.1675 9.199375 4.085 10.08625 4 11 C3.67 11 3.34 11 3 11 C2.34 8.69 1.68 6.38 1 4 C-1.31 3.67 -3.62 3.34 -6 3 C-7.32 5.31 -8.64 7.62 -10 10 C-11.31501363 7.83409519 -12.03022952 6.49878708 -11.875 3.9375 C-9.3676053 -1.61458827 -5.40758003 -1.54502287 0 0 Z " fill="#28638C" transform="translate(119,103)"/>
<path d="M0 0 C1.32 0.33 2.64 0.66 4 1 C4 6.28 4 11.56 4 17 C2.68 17 1.36 17 0 17 C0 11.39 0 5.78 0 0 Z " fill="#444444" transform="translate(173,158)"/>
<path d="M0 0 C0.99 0 1.98 0 3 0 C3 5.61 3 11.22 3 17 C1.68 16.67 0.36 16.34 -1 16 C-1.02685095 13.52076199 -1.04676547 11.0418116 -1.0625 8.5625 C-1.07506836 7.50192383 -1.07506836 7.50192383 -1.08789062 6.41992188 C-1.09653588 4.61306441 -1.05220011 2.80612397 -1 1 C-0.67 0.67 -0.34 0.34 0 0 Z " fill="#444545" transform="translate(103,158)"/>
<path d="M0 0 C0.99 0 1.98 0 3 0 C3.05382106 2.62527189 3.09358313 5.24944713 3.125 7.875 C3.14175781 8.62136719 3.15851563 9.36773437 3.17578125 10.13671875 C3.1933959 12.09194461 3.10320189 14.04742021 3 16 C2.34 16.66 1.68 17.32 1 18 C-0.32 18 -1.64 18 -3 18 C-3 16.68 -3 15.36 -3 14 C-2.34 13.67 -1.68 13.34 -1 13 C-0.53045739 9.95418731 -0.53045739 9.95418731 -0.375 6.4375 C-0.30023438 5.23996094 -0.22546875 4.04242188 -0.1484375 2.80859375 C-0.09945312 1.88175781 -0.05046875 0.95492187 0 0 Z " fill="#424242" transform="translate(193,162)"/>
<path d="M0 0 C0.66 0.66 1.32 1.32 2 2 C1.01 2.33 0.02 2.66 -1 3 C-0.67 4.65 -0.34 6.3 0 8 C-0.66 7.34 -1.32 6.68 -2 6 C-3.31747324 5.30251417 -4.64914193 4.63040043 -6 4 C-5.01 3.67 -4.02 3.34 -3 3 C-5.33071879 2.58129447 -5.33071879 2.58129447 -8 3 C-8.515625 3.8353125 -9.03125 4.670625 -9.5625 5.53125 C-12 8 -12 8 -14.10058594 8.31762695 C-16.6734281 8.26704313 -19.19018262 8.07528775 -21.75 7.8125 C-22.63816406 7.74224609 -23.52632812 7.67199219 -24.44140625 7.59960938 C-26.63068793 7.4230544 -28.81498935 7.22250036 -31 7 C-31 6.67 -31 6.34 -31 6 C-24.73 6 -18.46 6 -12 6 C-11.67 4.68 -11.34 3.36 -11 2 C-6.93150591 -0.71232939 -4.83523216 -0.30699887 0 0 Z " fill="#258F71" transform="translate(194,129)"/>
<path d="M0 0 C0.33 0 0.66 0 1 0 C1 2.97 1 5.94 1 9 C-6.14677104 9.16242661 -6.14677104 9.16242661 -9 8 C-9.33 7.01 -9.66 6.02 -10 5 C-11.72880982 4.94550162 -13.45812712 4.90698312 -15.1875 4.875 C-16.63189453 4.84019531 -16.63189453 4.84019531 -18.10546875 4.8046875 C-21.14354281 5.00968575 -23.22113261 5.8137272 -26 7 C-26.99 7 -27.98 7 -29 7 C-29 6.34 -29 5.68 -29 5 C-24.72115394 2.8896565 -20.86135858 2.75871261 -16.1875 2.875 C-15.14819336 2.88853516 -15.14819336 2.88853516 -14.08789062 2.90234375 C-12.39177605 2.92573843 -10.69584129 2.96160359 -9 3 C-8.67 3.99 -8.34 4.98 -8 6 C-5.36 6 -2.72 6 0 6 C0 4.02 0 2.04 0 0 Z " fill="#146662" transform="translate(131,44)"/>
<path d="M0 0 C0 0.66 0 1.32 0 2 C0.85464844 2.19335938 1.70929688 2.38671875 2.58984375 2.5859375 C3.69457031 2.84632812 4.79929687 3.10671875 5.9375 3.375 C7.03964844 3.63023438 8.14179687 3.88546875 9.27734375 4.1484375 C10.17582031 4.42945313 11.07429688 4.71046875 12 5 C13.27351308 7.54702616 12.80191925 8.4282945 12.0625 11.125 C11.86785156 11.84945312 11.67320313 12.57390625 11.47265625 13.3203125 C11.31667969 13.87460937 11.16070312 14.42890625 11 15 C11.99 15.33 12.98 15.66 14 16 C12.68 16.33 11.36 16.66 10 17 C10 13.7 10 10.4 10 7 C9.21625 6.9175 8.4325 6.835 7.625 6.75 C2.822355 5.75634931 -1.49809489 3.91286482 -6 2 C-6 1.34 -6 0.68 -6 0 C-2.25 -1.125 -2.25 -1.125 0 0 Z " fill="#176350" transform="translate(87,36)"/>
<path d="M0 0 C0.125 2.875 0.125 2.875 0 6 C-2 8 -2 8 -5 9 C-5 8.34 -5 7.68 -5 7 C-5.66 7 -6.32 7 -7 7 C-7.66 5.02 -8.32 3.04 -9 1 C-6.04335481 -0.4783226 -3.25770263 -0.06032783 0 0 Z " fill="#2F6EA5" transform="translate(115,88)"/>
<path d="M0 0 C0.66 0.33 1.32 0.66 2 1 C1.67 2.65 1.34 4.3 1 6 C0.34 6 -0.32 6 -1 6 C-0.505 6.45375 -0.01 6.9075 0.5 7.375 C2 9 2 9 2 11 C-2.875 9.25 -2.875 9.25 -4 7 C-4.65597168 6.98541748 -5.31194336 6.97083496 -5.98779297 6.95581055 C-8.95080031 6.88148586 -11.91266117 6.78477631 -14.875 6.6875 C-16.42380859 6.65366211 -16.42380859 6.65366211 -18.00390625 6.61914062 C-18.99003906 6.58369141 -19.97617188 6.54824219 -20.9921875 6.51171875 C-21.90339355 6.48553467 -22.81459961 6.45935059 -23.75341797 6.43237305 C-24.49479004 6.28968994 -25.23616211 6.14700684 -26 6 C-26.66 5.01 -27.32 4.02 -28 3 C-27.01 3.33 -26.02 3.66 -25 4 C-23.22833025 4.14835948 -21.45232388 4.24770018 -19.67578125 4.31640625 C-18.13374023 4.37924805 -18.13374023 4.37924805 -16.56054688 4.44335938 C-14.95276367 4.50233398 -14.95276367 4.50233398 -13.3125 4.5625 C-12.22904297 4.60568359 -11.14558594 4.64886719 -10.02929688 4.69335938 C-7.35299209 4.79946838 -4.67659474 4.90152361 -2 5 C-1.34 3.35 -0.68 1.7 0 0 Z " fill="#1B8D73" transform="translate(186,134)"/>
<path d="M0 0 C0.66 0 1.32 0 2 0 C2 3.3 2 6.6 2 10 C-0.31 10.33 -2.62 10.66 -5 11 C-5.33 10.01 -5.66 9.02 -6 8 C-4.22557591 5.00183515 -2.46459429 2.46459429 0 0 Z " fill="#306AA3" transform="translate(111,50)"/>
<path d="M0 0 C2.0625 1.75 2.0625 1.75 4 4 C3.67 5.32 3.34 6.64 3 8 C7.455 7.505 7.455 7.505 12 7 C12.33 7.66 12.66 8.32 13 9 C12.34 9 11.68 9 11 9 C11 9.66 11 10.32 11 11 C9.741875 11.020625 8.48375 11.04125 7.1875 11.0625 C6.47980469 11.07410156 5.77210937 11.08570313 5.04296875 11.09765625 C3 11 3 11 0 10 C0 6.7 0 3.4 0 0 Z " fill="#4E4E4E" transform="translate(58,164)"/>
<path d="M0 0 C0.66 0 1.32 0 2 0 C4.49852479 2.57201081 5.90211023 4.13857001 6.3125 7.75 C6 10 6 10 5 11 C3.35 11 1.7 11 0 11 C0 7.37 0 3.74 0 0 Z " fill="#2C6398" transform="translate(116,49)"/>
<path d="M0 0 C1.95803507 -0.05389087 3.91648909 -0.09274217 5.875 -0.125 C7.51082031 -0.15980469 7.51082031 -0.15980469 9.1796875 -0.1953125 C12 0 12 0 14 2 C10.57905758 4.28062828 9.31812778 4.21925007 5.3125 4.125 C3.82169922 4.09792969 3.82169922 4.09792969 2.30078125 4.0703125 C1.54152344 4.04710937 0.78226563 4.02390625 0 4 C0 2.68 0 1.36 0 0 Z " fill="#4B5252" transform="translate(46,126)"/>
<path d="M0 0 C1.29373782 0.78827746 2.58491951 1.58075116 3.875 2.375 C4.59429687 2.81585938 5.31359375 3.25671875 6.0546875 3.7109375 C8 5 8 5 10 7 C9.625 9.625 9.625 9.625 9 12 C8.52949219 11.59007813 8.05898437 11.18015625 7.57421875 10.7578125 C6.95160156 10.21898438 6.32898438 9.68015625 5.6875 9.125 C5.07261719 8.59132813 4.45773438 8.05765625 3.82421875 7.5078125 C1.86501788 5.8359553 1.86501788 5.8359553 -1 4 C-0.67 2.68 -0.34 1.36 0 0 Z " fill="#1A947E" transform="translate(121,95)"/>
<path d="M0 0 C1.65 0 3.3 0 5 0 C5.12375 0.61875 5.2475 1.2375 5.375 1.875 C5.87197356 4.19120832 5.87197356 4.19120832 8 6 C7 7 7 7 4.93359375 7.09765625 C4.10988281 7.08605469 3.28617187 7.07445313 2.4375 7.0625 C1.61121094 7.05347656 0.78492187 7.04445313 -0.06640625 7.03515625 C-0.70449219 7.02355469 -1.34257813 7.01195313 -2 7 C-1.34 4.69 -0.68 2.38 0 0 Z " fill="#336DAB" transform="translate(119,64)"/>
<path d="M0 0 C0.99 0.33 1.98 0.66 3 1 C2.67 1.33 2.34 1.66 2 2 C1.95919217 3.99958364 1.95745644 6.00045254 2 8 C4.64 8 7.28 8 10 8 C10.33 7.34 10.66 6.68 11 6 C11.33 6.66 11.66 7.32 12 8 C10.69007757 10.61984486 9.74954328 11.03394425 7 12 C3.875 11.9375 3.875 11.9375 1 11 C-1.00221522 7.72364781 -1.31603809 4.7924571 -1 1 C-0.67 0.67 -0.34 0.34 0 0 Z " fill="#2B689D" transform="translate(125,119)"/>
<path d="M0 0 C0.33 0.66 0.66 1.32 1 2 C1.66 2 2.32 2 3 2 C2.67 2.99 2.34 3.98 2 5 C-1.3 5 -4.6 5 -8 5 C-8.33 3.68 -8.66 2.36 -9 1 C-4.545 0.505 -4.545 0.505 0 0 Z " fill="#484848" transform="translate(169,170)"/>
<path d="M0 0 C2.475 0.99 2.475 0.99 5 2 C1.25 4 1.25 4 -1 4 C-1.12375 5.0725 -1.2475 6.145 -1.375 7.25 C-2 11 -2 11 -4 15 C-0.7 15 2.6 15 6 15 C6 15.33 6 15.66 6 16 C4.35492782 16.19406478 2.70890406 16.38007935 1.0625 16.5625 C0.14597656 16.66691406 -0.77054687 16.77132812 -1.71484375 16.87890625 C-2.84599609 16.93884766 -2.84599609 16.93884766 -4 17 C-5 16 -5 16 -5.375 13.5625 C-4.83468509 8.42950831 -2.47404394 4.47095083 0 0 Z " fill="#2E5B7C" transform="translate(94,57)"/>
<path d="M0 0 C8.78723404 -0.44680851 8.78723404 -0.44680851 13 3 C13.33 3.99 13.66 4.98 14 6 C11 7 11 7 9 6.25 C7 5 7 5 5.5 3.375 C3.847706 1.54951691 3.847706 1.54951691 0 2 C0 1.34 0 0.68 0 0 Z " fill="#2C6597" transform="translate(116,87)"/>
<path d="M0 0 C0.99 0.495 0.99 0.495 2 1 C1.67 4.63 1.34 8.26 1 12 C2.65 11.67 4.3 11.34 6 11 C6.34900558 7.28263359 6.34900558 7.28263359 4.5 4.1875 C4.005 3.795625 3.51 3.40375 3 3 C3.33 2.34 3.66 1.68 4 1 C7.07796445 3.4822294 7.94396277 4.74567717 8.8125 8.6875 C8.874375 9.780625 8.93625 10.87375 9 12 C8 13 8 13 6.15234375 13.09765625 C4.1015625 13.06510417 2.05078125 13.03255208 0 13 C0 8.71 0 4.42 0 0 Z " fill="#2C5C82" transform="translate(115,48)"/>
<path d="M0 0 C5.875 0.875 5.875 0.875 7 2 C7.33 1.34 7.66 0.68 8 0 C8.66 0.33 9.32 0.66 10 1 C10 2.65 10 4.3 10 6 C7.69 6 5.38 6 3 6 C3 4.68 3 3.36 3 2 C2.01 2 1.02 2 0 2 C0 1.34 0 0.68 0 0 Z " fill="#3B3B3B" transform="translate(44,173)"/>
<path d="M0 0 C0.99 0.33 1.98 0.66 3 1 C3 1.99 3 2.98 3 4 C0 6 0 6 -4 6 C-4 5.34 -4 4.68 -4 4 C-4.99 3.67 -5.98 3.34 -7 3 C-7 2.34 -7 1.68 -7 1 C-5.5459375 1.0309375 -5.5459375 1.0309375 -4.0625 1.0625 C-1.12534105 1.35618499 -1.12534105 1.35618499 0 0 Z " fill="#0FA474" transform="translate(192,139)"/>
<path d="M0 0 C0.33 0 0.66 0 1 0 C1.33 2.64 1.66 5.28 2 8 C2.66 8 3.32 8 4 8 C4.33 8.99 4.66 9.98 5 11 C4.67 11.66 4.34 12.32 4 13 C2.68 13 1.36 13 0 13 C-0.19397476 11.02145742 -0.38001321 9.0421352 -0.5625 7.0625 C-0.66691406 5.96035156 -0.77132812 4.85820313 -0.87890625 3.72265625 C-0.91886719 2.82417969 -0.95882812 1.92570312 -1 1 C-0.67 0.67 -0.34 0.34 0 0 Z " fill="#B3A53D" transform="translate(139,45)"/>
<path d="M0 0 C1.875 0.3125 1.875 0.3125 4 1 C6.32579101 4.48868651 6.41865457 5.89718519 6 10 C4.5 12.375 4.5 12.375 3 14 C2.34 13.67 1.68 13.34 1 13 C1.350625 12.443125 1.70125 11.88625 2.0625 11.3125 C3.22744574 8.43896717 2.77627558 6.94984719 2 4 C2 3.34 2 2.68 2 2 C1.34 1.34 0.68 0.68 0 0 Z " fill="#265A83" transform="translate(101,117)"/>
<path d="M0 0 C0.33 0.66 0.66 1.32 1 2 C-1.475 3.485 -1.475 3.485 -4 5 C-3.67 8.3 -3.34 11.6 -3 15 C-3.66 15 -4.32 15 -5 15 C-6.82332792 12.31863541 -7 10.80295881 -7 7.5 C-6 4 -6 4 -2.9375 1.5625 C-1.968125 1.046875 -0.99875 0.53125 0 0 Z " fill="#275876" transform="translate(129,115)"/>
<path d="M0 0 C1.32 0.66 2.64 1.32 4 2 C3.67 3.32 3.34 4.64 3 6 C1.68 6.33 0.36 6.66 -1 7 C-1.625 4.625 -1.625 4.625 -2 2 C-1.34 1.34 -0.68 0.68 0 0 Z " fill="#15A177" transform="translate(96,104)"/>
<path d="M0 0 C0.75 1.75 0.75 1.75 1 4 C-0.8125 6.25 -0.8125 6.25 -3 8 C-3.66 8 -4.32 8 -5 8 C-4.75 5.125 -4.75 5.125 -4 2 C-1.9375 0.625 -1.9375 0.625 0 0 Z " fill="#12A17F" transform="translate(91,113)"/>
<path d="M0 0 C3.37082558 1.44463953 5.58037292 3.24663125 8 6 C8.33 6.99 8.66 7.98 9 9 C7.35 8.67 5.7 8.34 4 8 C4 7.01 4 6.02 4 5 C2.68 4.34 1.36 3.68 0 3 C0 2.01 0 1.02 0 0 Z " fill="#13A57D" transform="translate(132,107)"/>
<path d="M0 0 C2.39456443 2.39456443 2.75546876 3.65807308 3 7 C1.55893291 9.12367781 0.33829125 9.85199758 -2 10.875 C-4 11 -4 11 -5.75 9.5625 C-6.1625 9.046875 -6.575 8.53125 -7 8 C-3.535 7.505 -3.535 7.505 0 7 C0 4.69 0 2.38 0 0 Z " fill="#2D679E" transform="translate(102,121)"/>
<path d="M0 0 C-0.25561323 2.3431213 -0.59270772 4.67843403 -1 7 C-1.99 7.495 -1.99 7.495 -3 8 C-3.66 6.68 -4.32 5.36 -5 4 C-5.99 4.495 -5.99 4.495 -7 5 C-7 4.01 -7 3.02 -7 2 C-1.125 0 -1.125 0 0 0 Z " fill="#2E66A3" transform="translate(100,59)"/>
<path d="M0 0 C0 0.66 0 1.32 0 2 C1.98 2.66 3.96 3.32 6 4 C6 4.66 6 5.32 6 6 C4.1838018 5.57811541 2.37205927 5.13700835 0.5625 4.6875 C-0.44683594 4.44386719 -1.45617187 4.20023438 -2.49609375 3.94921875 C-3.73552734 3.47935547 -3.73552734 3.47935547 -5 3 C-5.33 2.01 -5.66 1.02 -6 0 C-2.25 -1.125 -2.25 -1.125 0 0 Z " fill="#165B48" transform="translate(87,36)"/>
<path d="M0 0 C1.53445094 3.06890187 0.54984289 5.70094266 0 9 C-0.33 8.34 -0.66 7.68 -1 7 C-3.02463255 6.34786708 -3.02463255 6.34786708 -5 6 C-5 5.34 -5 4.68 -5 4 C-4.34 4 -3.68 4 -3 4 C-2.67 3.01 -2.34 2.02 -2 1 C-1.34 0.67 -0.68 0.34 0 0 Z " fill="#18916E" transform="translate(86,115)"/>
<path d="M0 0 C1.7015625 0.2784375 1.7015625 0.2784375 3.4375 0.5625 C4.613125 0.706875 5.78875 0.85125 7 1 C7.33 0.67 7.66 0.34 8 0 C8.66 0 9.32 0 10 0 C10.33 1.32 10.66 2.64 11 4 C8.69 4 6.38 4 4 4 C4 3.34 4 2.68 4 2 C2.68 2.33 1.36 2.66 0 3 C0 2.01 0 1.02 0 0 Z " fill="#49494A" transform="translate(88,171)"/>
<path d="M0 0 C2.49361571 1.20381448 4.68143083 2.45428722 7 4 C6.67 5.32 6.34 6.64 6 8 C1.3125 4.38671875 1.3125 4.38671875 0 3 C0 2.01 0 1.02 0 0 Z " fill="#11A77E" transform="translate(124,99)"/>
<path d="M0 0 C0 3 0 3 -1.5 4.6875 C-1.995 5.120625 -2.49 5.55375 -3 6 C-3.33 5.34 -3.66 4.68 -4 4 C-5.65 5.32 -7.3 6.64 -9 8 C-9.66 7.67 -10.32 7.34 -11 7 C-7.43569245 3.85014682 -4.59306496 1.4859916 0 0 Z " fill="#2A5F7F" transform="translate(107,49)"/>
<path d="M0 0 C0 0.66 0 1.32 0 2 C-3.22791555 4.1519437 -4.28400809 4.20086443 -8 4 C-8 3.01 -8 2.02 -8 1 C-2.25 -1.125 -2.25 -1.125 0 0 Z " fill="#4F4F4F" transform="translate(139,171)"/>
<path d="M0 0 C0.66 0.33 1.32 0.66 2 1 C2 2.65 2 4.3 2 6 C0.68 5.67 -0.64 5.34 -2 5 C-2.33 3.68 -2.66 2.36 -3 1 C-2.01 0.67 -1.02 0.34 0 0 Z " fill="#326DA5" transform="translate(120,88)"/>
<path d="M0 0 C0.66 0 1.32 0 2 0 C2.33 1.32 2.66 2.64 3 4 C3.66 4 4.32 4 5 4 C4.67 4.66 4.34 5.32 4 6 C1.69 6 -0.62 6 -3 6 C-2.34 5.67 -1.68 5.34 -1 5 C-0.34444881 2.47266765 -0.34444881 2.47266765 0 0 Z M0 2 C1 4 1 4 1 4 Z " fill="#276D8A" transform="translate(105,91)"/>
<path d="M0 0 C0.66 0 1.32 0 2 0 C2 2.64 2 5.28 2 8 C1.01 8 0.02 8 -1 8 C-1.04241723 5.66705225 -1.04092937 3.33297433 -1 1 C-0.67 0.67 -0.34 0.34 0 0 Z " fill="#CEB421" transform="translate(142,45)"/>
<path d="M0 0 C1.84765625 0.33984375 1.84765625 0.33984375 4.0625 0.9375 C5.16271484 1.22947266 5.16271484 1.22947266 6.28515625 1.52734375 C7.13400391 1.76130859 7.13400391 1.76130859 8 2 C7.67 2.66 7.34 3.32 7 4 C3.9375 4.625 3.9375 4.625 1 5 C0.34 3.68 -0.32 2.36 -1 1 C-0.67 0.67 -0.34 0.34 0 0 Z " fill="#057854" transform="translate(136,34)"/>
<path d="M0 0 C0.33 1.32 0.66 2.64 1 4 C-3.29 4 -7.58 4 -12 4 C-12 3.67 -12 3.34 -12 3 C-10.95199219 2.92652344 -10.95199219 2.92652344 -9.8828125 2.8515625 C-8.97273437 2.77679688 -8.06265625 2.70203125 -7.125 2.625 C-6.22007812 2.55539063 -5.31515625 2.48578125 -4.3828125 2.4140625 C-1.82058097 2.20431868 -1.82058097 2.20431868 0 0 Z " fill="#3E3E41" transform="translate(154,171)"/>
<path d="M0 0 C1.76462683 3.08809695 2 4.23312136 2 8 C1.01 8 0.02 8 -1 8 C-1.33 5.69 -1.66 3.38 -2 1 C-1.34 0.67 -0.68 0.34 0 0 Z " fill="#11A379" transform="translate(195,131)"/>
<path d="M0 0 C-0.66 1.65 -1.32 3.3 -2 5 C-2.33 4.01 -2.66 3.02 -3 2 C-5.01508358 1.26676204 -5.01508358 1.26676204 -7 1 C-3.375 -1.125 -3.375 -1.125 0 0 Z " fill="#1E8F85" transform="translate(110,97)"/>
<path d="M0 0 C0.99 0 1.98 0 3 0 C3 1.98 3 3.96 3 6 C2.01 6.33 1.02 6.66 0 7 C-0.38133299 5.0085944 -0.71325582 3.00720923 -1 1 C-0.67 0.67 -0.34 0.34 0 0 Z " fill="#277B9E" transform="translate(112,88)"/>
<path d="M0 0 C1.37562854 1.28965176 2.70766393 2.62689293 4 4 C4 4.66 4 5.32 4 6 C2.35 6 0.7 6 -1 6 C-0.67 4.02 -0.34 2.04 0 0 Z " fill="#2C6DA8" transform="translate(118,53)"/>
<path d="M0 0 C7.50769231 -0.36923077 7.50769231 -0.36923077 10 1.5 C10.495 2.2425 10.495 2.2425 11 3 C10.01 3.33 9.02 3.66 8 4 C7.34 3.34 6.68 2.68 6 2 C4.01178687 1.60235737 2.01055661 1.26224651 0 1 C0 0.67 0 0.34 0 0 Z " fill="#238468" transform="translate(35,129)"/>
<path d="M0 0 C1.98 0.495 1.98 0.495 4 1 C3.34 2.32 2.68 3.64 2 5 C1.01 4.67 0.02 4.34 -1 4 C-0.67 2.68 -0.34 1.36 0 0 Z " fill="#2A4942" transform="translate(142,110)"/>
<path d="M0 0 C1.5 1.3125 1.5 1.3125 3 3 C3 3.99 3 4.98 3 6 C1.68 5.67 0.36 5.34 -1 5 C-1.33 3.68 -1.66 2.36 -2 1 C-1.34 0.67 -0.68 0.34 0 0 Z " fill="#306899" transform="translate(100,90)"/>
<path d="M0 0 C0 1.65 0 3.3 0 5 C-1.65 5 -3.3 5 -5 5 C-5 4.01 -5 3.02 -5 2 C-2 0 -2 0 0 0 Z " fill="#13AA75" transform="translate(74,131)"/>
<path d="M0 0 C2.31 0.33 4.62 0.66 7 1 C6.67 1.99 6.34 2.98 6 4 C4.35 4 2.7 4 1 4 C0.67 2.68 0.34 1.36 0 0 Z " fill="#0EA66E" transform="translate(34,129)"/>
<path d="M0 0 C0.66 0.33 1.32 0.66 2 1 C2.40729228 3.32156597 2.74438677 5.6568787 3 8 C2.67 7.34 2.34 6.68 2 6 C1.01 5.67 0.02 5.34 -1 5 C-0.67 3.35 -0.34 1.7 0 0 Z " fill="#306A9F" transform="translate(91,120)"/>
<path d="M0 0 C1.32 0.33 2.64 0.66 4 1 C4 1.99 4 2.98 4 4 C2.02 4.33 0.04 4.66 -2 5 C-1.34 3.35 -0.68 1.7 0 0 Z " fill="#0FA07C" transform="translate(103,98)"/>
<path d="M0 0 C0.66 0.33 1.32 0.66 2 1 C1.34 3.97 0.68 6.94 0 10 C-0.66 9.67 -1.32 9.34 -2 9 C-2 7.68 -2 6.36 -2 5 C-1.34 5 -0.68 5 0 5 C0 3.35 0 1.7 0 0 Z " fill="#315C87" transform="translate(101,75)"/>
<path d="M0 0 C-0.33 0.66 -0.66 1.32 -1 2 C-3.32156597 2.40729228 -5.6568787 2.74438677 -8 3 C-8 2.34 -8 1.68 -8 1 C-4.93251126 -0.86240388 -3.40254489 -1.2151946 0 0 Z " fill="#1D6242" transform="translate(148,37)"/>
<path d="M0 0 C0.99 0 1.98 0 3 0 C3 1.32 3 2.64 3 4 C2.01 4 1.02 4 0 4 C0 2.68 0 1.36 0 0 Z " fill="#3F3F3F" transform="translate(79,158)"/>
<path d="M0 0 C0.99 0 1.98 0 3 0 C3 1.32 3 2.64 3 4 C2.01 4 1.02 4 0 4 C0 2.68 0 1.36 0 0 Z " fill="#414241" transform="translate(75,158)"/>
</svg>
