<?xml version="1.0" encoding="UTF-8"?>
<svg version="1.1" xmlns="http://www.w3.org/2000/svg" width="85" height="122">
<path d="M0 0 C14.09616594 0.5034345 25.14460346 4.77053696 34.96875 15.0625 C44.0296978 25.81277705 45.06898364 37.16013618 44.21875 50.73730469 C43.12113016 62.09080986 36.1864241 70.71640801 27.6875 77.875 C18.88484738 84.25089393 10.69001164 85.50305937 0 85 C0 78.07 0 71.14 0 64 C3.3 63.34 6.6 62.68 10 62 C15.16309672 59.22722583 18.3565928 55.8759626 21.25 50.8125 C23.04364346 44.08633704 22.75123644 37.84381462 19.26953125 31.75390625 C16.14214631 27.43330367 12.14678419 24.50637586 7 23 C4.69 22.67 2.38 22.34 0 22 C0 14.74 0 7.48 0 0 Z " fill="#FBB81C" transform="translate(41,37)"/>
<path d="M0 0 C11.88 0 23.76 0 36 0 C36 7.26 36 14.52 36 22 C31.38 22 26.76 22 22 22 C22.12761719 23.05058594 22.25523438 24.10117187 22.38671875 25.18359375 C23.33356827 36.35668448 23.33356827 36.35668448 19.796875 40.71484375 C17.87077478 42.16994405 15.90371437 43.57217332 13.90234375 44.921875 C7.46965388 49.52778484 3.69877685 56.69742734 1 64 C0.67 64 0.34 64 0 64 C0 42.88 0 21.76 0 0 Z " fill="#FBB81C" transform="translate(0,0)"/>
<path d="M0 0 C0.20391987 3.56165107 0.32782061 7.12180053 0.4375 10.6875 C0.49615234 11.69490234 0.55480469 12.70230469 0.61523438 13.74023438 C0.78570232 21.11906104 0.78570232 21.11906104 -1.49047852 23.67114258 C-3.3515625 24.9375 -3.3515625 24.9375 -5.27856445 26.01635742 C-7.62159533 27.35518474 -8.58642024 28.94265679 -9.8125 31.3125 C-10.19019531 32.00988281 -10.56789063 32.70726562 -10.95703125 33.42578125 C-12.33431802 36.82515197 -13.11043169 40.44172678 -14 44 C-20.93 44 -27.86 44 -35 44 C-34.5645096 30.64496102 -31.83517744 20.94517503 -22.39453125 11.19140625 C-16.31170202 5.62457559 -8.56800676 0 0 0 Z " fill="#FBB81C" transform="translate(36,38)"/>
<path d="M0 0 C12.87 0 25.74 0 39 0 C39 7.26 39 14.52 39 22 C26.13 22 13.26 22 0 22 C0 14.74 0 7.48 0 0 Z " fill="#FBB81C" transform="translate(41,0)"/>
<path d="M0 0 C11.55 0 23.1 0 35 0 C35 6.93 35 13.86 35 21 C23.45 21 11.9 21 0 21 C0 14.07 0 7.14 0 0 Z " fill="#FBB81C" transform="translate(1,101)"/>
</svg>
